<svg width="19" height="29" xmlns="http://www.w3.org/2000/svg" fill="none"><path fill="#000" d="M.399 18.71a.32.32 0 0 0-.323.311l-.002.181a9.355 9.355 0 1 0 18.709-.18.32.32 0 0 0-.323-.312h-3.605a.347.347 0 0 0-.34.36c.002.045.002.088.002.132 0 2.799-2.29 5.088-5.088 5.088S4.342 22 4.342 19.202l.001-.131a.347.347 0 0 0-.34-.361H.4z" clip-rule="evenodd" fill-rule="evenodd"/><path fill="#fff" d="M.901 19.53a8.535 8.535 0 0 0 17.057 0h-2.63c-.17 3.1-2.757 5.58-5.899 5.58-3.141 0-5.727-2.48-5.899-5.58H.901zm-.825-.509A.32.32 0 0 1 .4 18.71h3.605c.194 0 .344.167.34.36a5.128 5.128 0 0 0-.002.132c0 2.799 2.29 5.088 5.087 5.088 2.799 0 5.088-2.29 5.088-5.088 0-.044 0-.087-.002-.131a.347.347 0 0 1 .34-.361h3.605a.32.32 0 0 1 .323.311l.001.181a9.355 9.355 0 1 1-18.708-.18z" clip-rule="evenodd" fill-rule="evenodd"/><path fill="#fff" d="M14.517.164c0-.09.074-.164.164-.164h3.94c.09 0 .163.073.163.164v18.874h-4.267V.164z"/><path fill="#000" d="M9.355 18.71a9.355 9.355 0 1 0 0-18.71 9.355 9.355 0 0 0 0 18.71zm0-4.267c2.798 0 5.088-2.29 5.088-5.088s-2.29-5.088-5.088-5.088-5.088 2.29-5.088 5.088 2.29 5.088 5.088 5.088z" clip-rule="evenodd" fill-rule="evenodd"/><path fill="#fff" d="M9.43 17.89a8.534 8.534 0 1 0 0-17.07 8.534 8.534 0 0 0 0 17.07zm5.908-8.535c0 3.251-2.657 5.908-5.909 5.908-3.251 0-5.908-2.657-5.908-5.908 0-3.252 2.657-5.908 5.908-5.908 3.252 0 5.909 2.656 5.909 5.908zm3.446 0A9.355 9.355 0 0 1 9.43 18.71 9.355 9.355 0 1 1 9.43 0a9.355 9.355 0 0 1 9.355 9.355zm-4.267 0c0 2.798-2.29 5.088-5.088 5.088s-5.087-2.29-5.087-5.088 2.29-5.088 5.087-5.088c2.799 0 5.088 2.29 5.088 5.088z" clip-rule="evenodd" fill-rule="evenodd"/></svg>