<svg width="422" height="411" fill="none" xmlns="http://www.w3.org/2000/svg"><mask id="a" fill="#fff"><rect y="65" width="189" height="189" rx="4"/></mask><rect y="65" width="189" height="189" rx="4" fill="#5A6BFF" fill-opacity=".28" stroke="#5A6BFF" stroke-width="10" mask="url(#a)"/><path d="M150.5 160c0 31.224-25.092 56.5-56 56.5s-56-25.276-56-56.5 25.092-56.5 56-56.5 56 25.276 56 56.5z" stroke="#5A6BFF" stroke-width="5"/><mask id="b" fill="#fff"><rect x="219" width="189" height="189" rx="4"/></mask><rect x="219" width="189" height="189" rx="4" fill="#5A6BFF" fill-opacity=".28" stroke="#5A6BFF" stroke-width="10" mask="url(#b)"/><mask id="c" fill="#fff"><rect x="233" y="222" width="189" height="189" rx="4"/></mask><rect x="233" y="222" width="189" height="189" rx="4" fill="#5A6BFF" fill-opacity=".28" stroke="#5A6BFF" stroke-width="10" mask="url(#c)"/><path d="M293.845 291.5c1.287 16.798 15.433 30 32.655 30s31.368-13.202 32.655-30h25.291c-1.32 30.579-26.74 55-57.946 55s-56.626-24.421-57.946-55h25.291zM296.5 40.5h33v109h-33z" stroke="#5A6BFF" stroke-width="5"/></svg>